<?xml version="1.0" encoding="utf-8"?>
<!-- Generator: Adobe Illustrator 27.0.0, SVG Export Plug-In . SVG Version: 6.00 Build 0)  -->
<svg version="1.1" id="Layer_1" xmlns="http://www.w3.org/2000/svg" xmlns:xlink="http://www.w3.org/1999/xlink" x="0px" y="0px"
	 viewBox="0 0 2000 412.66" style="enable-background:new 0 0 2000 412.66;" xml:space="preserve">
<g>
	<path d="M453.48,133.97c12.78,6.65,22.99,16.73,30.65,30.27c7.65,13.54,11.48,30.14,11.48,49.82c0,19.67-3.83,36.28-11.48,49.82
		c-7.65,13.54-17.87,23.63-30.65,30.27c-12.78,6.65-26.82,9.96-42.12,9.96H281.7V124h129.65C426.66,124,440.7,127.33,453.48,133.97z
		 M389.41,259.71c11.26,0,20.51-1.01,27.75-3.03c7.23-2.02,13.03-6.31,17.41-12.86c4.37-6.56,6.56-16.48,6.56-29.76
		c0-13.28-2.19-23.21-6.56-29.77c-4.38-6.56-10.18-10.85-17.41-12.86c-7.23-2.02-16.48-3.03-27.75-3.03h-55.49v91.31H389.41z"/>
	<path d="M515.03,124h52.21v180.1h-52.21V124z"/>
	<path d="M838.16,304.11h-56l-17.15-34.05H654.02l-17.15,34.05h-56.25L673.44,124h72.14L838.16,304.11z M709.51,160.58l-35.57,70.38
		h71.13L709.51,160.58z"/>
	<path d="M904,124v135.71h124.86v44.39H851.78V124H904z"/>
	<path d="M1235.45,124v40.86H1101v28.76h129.4v40.86H1101v28.76h134.45v40.86h-186.66V124H1235.45z"/>
	<path d="M1280.47,143.3c19.25-16.23,46.96-24.34,83.11-24.34c32.62,0,58.31,6.6,77.06,19.8c18.75,13.2,29.47,31.57,32.16,55.12
		h-55.49c-1.85-8.91-7.32-16.23-16.4-21.95c-9.08-5.71-21.53-8.58-37.33-8.58c-19,0-33.3,4.38-42.88,13.12
		c-9.59,8.75-14.38,21.19-14.38,37.33c0,16.14,4.83,28.67,14.5,37.58c9.67,8.92,23.92,13.37,42.75,13.37c15.8,0,28.25-2.9,37.33-8.7
		c9.08-5.8,14.54-13.24,16.4-22.32h55.49c-2.69,23.71-13.41,42.21-32.16,55.49c-18.75,13.29-44.44,19.93-77.06,19.93
		c-36.16,0-63.86-8.15-83.11-24.47c-19.26-16.31-28.88-39.94-28.88-70.88C1251.59,183.03,1261.22,159.53,1280.47,143.3z"/>
	<path d="M1697.56,124v44.4h-82.23v135.71h-52.21V168.4h-82.48V124H1697.56z"/>
</g>
</svg>
